<svg width="30" height="30" viewBox="0 0 30 30" fill="none" xmlns="http://www.w3.org/2000/svg">
<path d="M17.6797 9.15458L17.5007 10.2671C17.2226 10.2321 16.9393 10.21 16.723 10.21C16.2491 10.21 15.8082 10.3077 15.5415 10.673C15.4178 10.8425 15.3644 11.0287 15.3387 11.1911C15.3134 11.3507 15.3104 11.5185 15.3104 11.6677V12.7168V13.2168H15.8104H17.4076L17.3068 14.3899H15.8104H15.3104V14.8899V21H13.6285V14.8899V14.3899H13.1285H12.25V13.2168H13.1285H13.6285V12.7168V11.3726C13.6285 10.523 13.8306 9.95905 14.1924 9.60136C14.5555 9.24226 15.1714 9 16.2014 9C16.7474 9 17.1787 9.05981 17.6797 9.15458Z" fill="#231F20" stroke="#231F20"/>
<rect x="0.5" y="0.5" width="29" height="29" rx="14.5" stroke="#231F20"/>
</svg>
