<svg width="45" height="45" viewBox="0 0 46 46" fill="none" xmlns="http://www.w3.org/2000/svg">
<path d="M25.1797 16.6546L25.0007 17.7671C24.7226 17.7321 24.4393 17.71 24.223 17.71C23.7491 17.71 23.3082 17.8077 23.0415 18.173C22.9178 18.3425 22.8644 18.5287 22.8387 18.6911C22.8134 18.8507 22.8104 19.0185 22.8104 19.1677V20.2168V20.7168H23.3104H24.9076L24.8068 21.8899H23.3104H22.8104V22.3899V28.5H21.1285V22.3899V21.8899H20.6285H19.75V20.7168H20.6285H21.1285V20.2168V18.8726C21.1285 18.023 21.3306 17.4591 21.6924 17.1014C22.0555 16.7423 22.6714 16.5 23.7014 16.5C24.2474 16.5 24.6787 16.5598 25.1797 16.6546Z" fill="#231F20" stroke="#231F20"/>
<rect x="0.5" y="0.5" width="44" height="44" rx="22" stroke="#231F20"/>
</svg>
