<svg width="358" height="113" viewBox="0 0 358 113" fill="none" xmlns="http://www.w3.org/2000/svg">
<path d="M124.509 35.5067L125.869 28.5601L137.383 30.8145L128.391 76.7372" stroke="#231F20"/>
<path d="M152.092 65.9471L143.446 110.107L127.196 106.925L147.933 1" stroke="#231F20"/>
<path d="M192.094 60.8577L181.984 112.492" stroke="#231F20"/>
<path d="M152.309 47.739C151.589 47.739 150.628 49.4917 150.244 50.02C149.928 50.4268 149.503 50.7351 149.019 50.9084C149.664 51.0983 150.23 51.4948 150.628 52.0371L153.774 57.3928H149.812L147.314 52.9502C147.098 52.5659 146.882 52.3498 146.642 52.301V57.3928H143.256V45.3366H146.642V49.8039C147.867 49.6357 148.924 45.1931 151.492 45.1931C151.936 45.1836 152.378 45.2652 152.79 45.4329V47.8831L152.429 47.739H152.309Z" fill="#231F20"/>
<path d="M157.544 57.6809L154.037 45.3367H157.423L159.249 53.9817L161.41 45.3367H164.7L159.681 61.9553H156.222L157.544 57.6809Z" fill="#231F20"/>
<path d="M169.502 47.666V53.4544C169.502 54.5105 169.502 55.4946 168.758 56.4077C168.013 57.2966 166.788 57.5842 165.107 57.5842H164.458V55.3274H165.083C166.044 55.3274 166.355 54.7986 166.355 53.1416V45.3367H174.808V57.3928H171.423V47.666H169.502Z" fill="#231F20"/>
<path d="M177.306 57.3928V45.3367H180.692V49.9717H182.253C183.502 49.9717 184.607 49.9717 185.543 50.7881C185.912 51.1676 186.196 51.6204 186.378 52.117C186.56 52.6135 186.635 53.1428 186.6 53.6704C186.6 56.5764 185.207 57.3928 182.061 57.3928H177.306ZM180.692 52.3498V55.0388H181.605C182.83 55.0388 183.166 54.7986 183.166 53.742C183.166 52.5896 182.806 52.3498 181.365 52.3498H180.692Z" fill="#231F20"/>
<path d="M186.011 47.7627V45.3367H195.737V47.7627H192.568V57.3928H189.182V47.7627H186.011Z" fill="#231F20"/>
<path d="M200.323 57.6809L196.817 45.3367H200.202L202.028 53.9817L204.189 45.3367H207.479L202.46 61.9553H199.002L200.323 57.6809Z" fill="#231F20"/>
<path d="M208.931 48.0029C208.931 47.186 208.883 46.3217 208.811 45.3366H212.126L212.245 46.4899C212.51 46.0237 212.9 45.6413 213.372 45.3865C213.843 45.1316 214.377 45.0145 214.912 45.0485C215.35 45.0393 215.786 45.1175 216.194 45.2784C216.602 45.4393 216.974 45.6797 217.289 45.9858C218.321 47.0661 218.418 48.8434 218.418 51.557C218.418 55.6879 217.649 57.6808 214.983 57.6808C214.459 57.7003 213.939 57.5925 213.466 57.3666C212.993 57.1407 212.583 56.8035 212.269 56.384V61.9552H208.931V48.0029ZM212.245 52.7577C212.245 54.6061 212.702 55.5192 213.663 55.5192C214.935 55.5192 215.055 54.1503 215.055 51.485V51.1964C215.055 48.363 215.031 47.0661 213.687 47.0661C212.462 47.0661 212.245 48.0265 212.245 50.1398V52.7577Z" fill="#231F20"/>
<path d="M220.603 45.3367H223.989V49.8281H226.582V45.3367H229.968V57.3928H226.582V52.3011H223.989V57.3928H220.603V45.3367Z" fill="#231F20"/>
<path d="M232.466 57.3928V45.3367H235.852V49.9717H237.413C238.661 49.9717 239.766 49.9717 240.702 50.7881C241.07 51.1675 241.355 51.6202 241.537 52.1168C241.719 52.6134 241.794 53.1428 241.758 53.6704C241.758 56.5764 240.366 57.3928 237.221 57.3928H232.466ZM235.852 52.3498V55.0388H236.764C237.989 55.0388 238.325 54.7986 238.325 53.742C238.325 52.5896 237.965 52.3498 236.523 52.3498H235.852ZM246.442 57.3928H243.056V45.3367H246.442V57.3928Z" fill="#231F20"/>
<path d="M255.29 50.3796C255.312 49.612 255.458 47.8105 255.458 47.6186C254.665 50.0679 253.176 55.3752 252.383 57.3928H248.18V45.3366H251.374L251.111 52.2531C251.063 53.3098 251.04 54.5588 250.966 55.1108C251.736 52.6374 253.128 47.4746 253.92 45.3366H258.195V57.3928H255.097C255.121 56.2153 255.29 50.3796 255.29 50.3796ZM251.231 39.8862C251.303 41.0864 251.928 41.6389 253.2 41.6389C254.473 41.6389 255.072 41.1101 255.169 39.8862H256.562C256.418 42.3108 255.361 43.4395 253.2 43.4395C251.063 43.4395 249.982 42.3108 249.837 39.8862H251.231Z" fill="#231F20"/>
<path d="M273.103 61.9553V56.384C272.807 56.81 272.406 57.153 271.94 57.38C271.473 57.6071 270.956 57.7106 270.438 57.6808C268.085 57.6808 267.317 55.6391 267.317 51.5571C267.317 48.8193 267.437 47.0661 268.397 45.9858C268.684 45.6831 269.031 45.4435 269.415 45.2821C269.8 45.1207 270.214 45.0412 270.63 45.0485C271.142 45.0217 271.65 45.1436 272.093 45.3994C272.536 45.6552 272.896 46.034 273.129 46.4899V40.1018H276.417V46.4899C276.65 46.0339 277.009 45.655 277.452 45.3991C277.895 45.1433 278.403 45.0215 278.914 45.0485C279.331 45.0436 279.744 45.1243 280.128 45.2855C280.513 45.4467 280.86 45.6851 281.148 45.9858C282.108 47.0661 282.229 48.8193 282.229 51.5571C282.229 55.6391 281.461 57.6808 279.108 57.6808C278.59 57.7106 278.073 57.6071 277.606 57.3801C277.139 57.153 276.738 56.8101 276.441 56.384V61.9553H273.103ZM273.129 50.1398C273.129 48.0265 272.936 47.0661 271.88 47.0661C270.726 47.0661 270.702 48.2905 270.702 50.9326V51.4851C270.702 54.1503 270.799 55.5192 271.903 55.5192C272.744 55.5192 273.129 54.6061 273.129 52.7577V50.1398ZM278.843 50.9326C278.843 48.2905 278.82 47.0661 277.666 47.0661C276.61 47.0661 276.417 48.0265 276.417 50.1398V52.7577C276.417 54.6061 276.802 55.5192 277.642 55.5192C278.747 55.5192 278.843 54.1503 278.843 51.4851V50.9326Z" fill="#231F20"/>
<path d="M294.069 51.1006C294.069 55.7835 293.084 57.6565 289.097 57.6565C285.111 57.6565 284.102 55.7835 284.102 51.1006C284.102 46.8741 285.424 45.0483 289.169 45.0483C292.771 45.0483 294.069 46.9219 294.069 51.1006ZM289.097 55.5674C290.418 55.5674 290.683 54.2705 290.683 51.2451C290.683 48.3391 290.467 47.1616 289.072 47.1616C287.729 47.1616 287.513 48.3628 287.513 51.2451C287.513 54.2705 287.776 55.5674 289.097 55.5674Z" fill="#231F20"/>
<path d="M296.043 48.0029C296.043 47.186 295.994 46.3217 295.923 45.3366H299.237L299.358 46.4899C299.622 46.0238 300.012 45.6414 300.483 45.3865C300.954 45.1316 301.488 45.0145 302.022 45.0485C302.461 45.0393 302.897 45.1175 303.306 45.2784C303.714 45.4393 304.086 45.6797 304.401 45.9858C305.432 47.0661 305.529 48.8434 305.529 51.557C305.529 55.6879 304.76 57.6808 302.094 57.6808C301.571 57.7004 301.05 57.5926 300.578 57.3667C300.105 57.1409 299.695 56.8036 299.381 56.384V61.9552H296.043V48.0029ZM299.358 52.7577C299.358 54.6061 299.813 55.5192 300.773 55.5192C302.046 55.5192 302.167 54.1503 302.167 51.485V51.1964C302.167 48.363 302.143 47.0661 300.798 47.0661C299.573 47.0661 299.358 48.0265 299.358 50.1398V52.7577Z" fill="#231F20"/>
<path d="M310.102 57.6809L306.597 45.3367H309.984L311.807 53.9817L313.97 45.3367H317.259L312.241 61.9553H308.784L310.102 57.6809Z" fill="#231F20"/>
<path d="M323.756 45.3367C324.02 46.2739 325.438 50.6682 325.942 53.1899C326.47 50.6209 327.455 47.1861 327.911 45.3367H332.833V57.3928H329.688L329.831 48.915L329.856 47.6187L327.263 57.3928H324.621L321.907 47.6187C321.907 47.6187 321.907 48.4351 321.931 48.915L322.148 57.3928H318.856V45.3367H323.756Z" fill="#231F20"/>
<path d="M337.237 39.2532C337.556 39.2186 337.878 39.2889 338.154 39.4534C338.429 39.6178 338.644 39.8676 338.765 40.1649C338.881 39.8893 339.077 39.6551 339.328 39.4925C339.579 39.33 339.873 39.2466 340.172 39.2532C341.214 39.2532 341.783 39.7978 341.783 40.8155V45.337H340.114V41.2772C340.114 40.6147 340.03 40.2714 339.569 40.2714C339.142 40.2714 338.847 40.591 338.847 41.112V45.337H337.178V41.2772C337.178 40.6147 337.083 40.2714 336.622 40.2714C336.195 40.2714 335.911 40.591 335.911 41.112V45.337H334.242V40.4603C334.25 40.1043 334.23 39.7483 334.184 39.3953H335.865L335.911 40.0109C336.038 39.7722 336.23 39.5743 336.465 39.4402C336.699 39.3061 336.967 39.2412 337.237 39.2532Z" fill="#231F20"/>
<path d="M347.736 42.2361C347.736 44.5443 347.251 45.4672 345.286 45.4672C343.32 45.4672 342.823 44.5443 342.823 42.2361C342.823 40.1529 343.474 39.2532 345.321 39.2532C347.097 39.2532 347.736 40.1766 347.736 42.2361ZM345.286 44.4377C345.937 44.4377 346.067 43.7984 346.067 42.3072C346.067 40.8751 345.96 40.295 345.274 40.295C344.611 40.295 344.504 40.8865 344.504 42.3072C344.504 43.7984 344.634 44.4377 345.286 44.4377Z" fill="#231F20"/>
<path d="M348.327 39.3953H350.032L350.48 41.8455C350.636 42.6257 350.728 43.4175 350.754 44.2128C350.896 43.4432 351.084 42.6263 351.309 41.7868L351.962 39.3953H353.689L354.457 42.3896C354.609 42.988 354.712 43.5977 354.766 44.2128C354.831 43.6002 354.93 42.9915 355.061 42.3896L355.654 39.3953H357.321L355.665 45.337H353.878L353.156 42.6263C352.987 41.9712 352.88 41.3017 352.836 40.6265C352.74 41.3101 352.598 41.9864 352.41 42.6505L351.593 45.337H349.854L348.327 39.3953Z" fill="#231F20"/>
<path d="M1.01509 48.2429C1.01509 46.177 2.62521 45.0483 5.74583 45.0483C8.82053 45.0483 10.1884 46.1297 10.1884 48.5547V54.5586C10.1791 55.5087 10.2597 56.4576 10.4292 57.3926H7.42697L7.16304 56.0232C6.7702 56.4984 6.2739 56.8774 5.71208 57.1314C5.15027 57.3853 4.53783 57.5074 3.92159 57.4883C1.92772 57.4883 0.679688 56.0473 0.679688 53.718C0.679688 50.9566 2.36082 49.8037 6.03487 49.6355L7.09151 49.5877V49.0352C7.09151 47.4744 6.77878 46.7774 5.74583 46.7774C4.68919 46.7774 4.13718 47.354 4.13718 48.4827H1.01509V48.2429ZM3.89744 53.6218C3.89744 54.8225 4.40157 55.4944 5.19382 55.4944C6.37033 55.4944 7.09151 54.4861 7.09151 52.4695V51.4124C4.78587 51.4124 3.89744 51.8924 3.89744 53.6218Z" fill="#231F20"/>
<path d="M17.8491 45.3367C20.5622 45.3367 22.0757 46.2739 22.0757 48.4109C22.1009 48.9923 21.943 49.567 21.6242 50.0538C21.3054 50.5407 20.8418 50.9152 20.2988 51.1245C20.894 51.2953 21.4154 51.6595 21.7807 52.1595C22.1459 52.6596 22.3342 53.267 22.3159 53.886C22.3159 56.4077 20.803 57.3928 17.9211 57.3928H12.7346V45.3367H17.8491ZM18.8101 48.7478C18.8101 48.0745 18.4016 47.6419 17.3686 47.6419H16.0239V50.02H17.3686C18.4016 50.02 18.8101 49.6121 18.8101 48.7478ZM18.9541 53.6941C18.9541 52.7815 18.4741 52.3257 17.2014 52.3257H16.0239V55.0388H17.1284C18.4741 55.0388 18.9541 54.6304 18.9541 53.6941Z" fill="#231F20"/>
<path d="M33.7294 52.9253C33.7294 56.0715 32.1192 57.6565 28.8295 57.6565C24.8436 57.6565 23.8348 55.7835 23.8348 51.1006C23.8348 46.8977 25.1554 45.0483 28.8295 45.0483C31.9757 45.0483 33.7294 46.6575 33.7294 49.4673V49.5877H30.3666V49.4673C30.3666 47.9307 29.862 47.1616 28.8053 47.1616C27.4611 47.1616 27.245 48.3628 27.245 51.2451C27.245 54.2705 27.5089 55.5674 28.8295 55.5674C29.8141 55.5674 30.3666 54.7263 30.3666 53.1413V52.9253H33.7294Z" fill="#231F20"/>
<path d="M34.8561 47.7627V45.3367H44.5823V47.7627H41.4125V57.3928H38.026V47.7627H34.8561Z" fill="#231F20"/>
<path d="M46.2514 48.0029C46.2514 47.186 46.2035 46.3217 46.1324 45.3366H49.4459L49.5663 46.4899C49.8306 46.0238 50.2207 45.6414 50.692 45.3865C51.1633 45.1316 51.6968 45.0145 52.2315 45.0485C52.6701 45.0392 53.1062 45.1173 53.5143 45.2782C53.9225 45.4391 54.2945 45.6796 54.6088 45.9857C55.6412 47.0661 55.7374 48.8434 55.7374 51.557C55.7374 55.6879 54.9694 57.6808 52.3036 57.6808C51.7801 57.7003 51.2597 57.5926 50.787 57.3667C50.3144 57.1408 49.9036 56.8036 49.59 56.3839V61.9552H46.2514V48.0029ZM49.5663 52.7577C49.5663 54.6061 50.0221 55.5191 50.9825 55.5191C52.2557 55.5191 52.3761 54.1503 52.3761 51.485V51.1964C52.3761 48.363 52.3514 47.0661 51.0067 47.0661C49.7818 47.0661 49.5663 48.0265 49.5663 50.1398V52.7577Z" fill="#231F20"/>
<path d="M64.7782 50.3796C64.8014 49.6121 64.9464 47.8106 64.9464 47.6187C64.1537 50.0679 62.6649 55.3753 61.8727 57.3928H57.6698V45.3367H60.8639L60.599 52.2532C60.5516 53.3098 60.5275 54.5589 60.456 55.1109C61.2245 52.6375 62.6166 47.4747 63.4093 45.3367H67.6842V57.3928H64.5858C64.6095 56.2153 64.7782 50.3796 64.7782 50.3796Z" fill="#231F20"/>
<path d="M77.289 50.3796C77.3137 49.612 77.4573 47.8105 77.4573 47.6186C76.6655 50.0679 75.1758 55.3752 74.384 57.3928H70.1812V45.3366H73.3752L73.1113 52.2531C73.0625 53.3098 73.0388 54.5588 72.9668 55.1108C73.7353 52.6374 75.1284 47.4746 75.9206 45.3366H80.1945V57.3928H77.0977C77.1218 56.2153 77.289 50.3796 77.289 50.3796ZM73.2307 39.8862C73.3032 41.0864 73.9277 41.6389 75.2004 41.6389C76.4721 41.6389 77.074 41.1101 77.1697 39.8862H78.5627C78.4182 42.3108 77.362 43.4395 75.2004 43.4395C73.0625 43.4395 71.9817 42.3108 71.8386 39.8862H73.2307Z" fill="#231F20"/>
<path d="M92.3147 52.9253C92.3147 56.0715 90.7061 57.6565 87.4159 57.6565C83.4295 57.6565 82.4218 55.7835 82.4218 51.1006C82.4218 46.8977 83.7423 45.0483 87.4159 45.0483C90.5626 45.0483 92.3147 46.6575 92.3147 49.4673V49.5877H88.9529V49.4673C88.9529 47.9307 88.4488 47.1616 87.3922 47.1616C86.048 47.1616 85.8319 48.3628 85.8319 51.2451C85.8319 54.2705 86.0958 55.5674 87.4159 55.5674C88.4005 55.5674 88.9529 54.7263 88.9529 53.1413V52.9253H92.3147Z" fill="#231F20"/>
<path d="M103.255 47.739C102.535 47.739 101.574 49.4916 101.189 50.02C100.874 50.4267 100.449 50.735 99.9646 50.9084C100.61 51.0985 101.175 51.4949 101.574 52.0371L104.72 57.3928H100.758L98.2598 52.9502C98.0432 52.5659 97.8277 52.3498 97.5874 52.301V57.3928H94.2014V45.3366H97.5874V49.8039C98.8123 49.6357 99.8684 45.1931 102.438 45.1931C102.883 45.1837 103.324 45.2653 103.735 45.4328V47.8831L103.374 47.739H103.255Z" fill="#231F20"/>
<path d="M113.125 50.3796C113.149 49.6121 113.293 47.8106 113.293 47.6187C112.5 50.0679 111.011 55.3753 110.219 57.3928H106.016V45.3367H109.21L108.946 52.2532C108.899 53.3098 108.875 54.5589 108.802 55.1109C109.571 52.6375 110.963 47.4747 111.756 45.3367H116.03V57.3928H112.933C112.956 56.2153 113.125 50.3796 113.125 50.3796Z" fill="#231F20"/>
<path d="M125.348 50.3796C125.372 49.612 125.515 47.8105 125.515 47.6186C124.723 50.0679 123.235 55.3752 122.442 57.3928H118.24V45.3366H121.433L121.169 52.2531C121.121 53.3098 121.096 54.5588 121.025 55.1108C121.793 52.6374 123.187 47.4746 123.979 45.3366H128.253V57.3928H125.156C125.18 56.2153 125.348 50.3796 125.348 50.3796ZM121.289 39.8862C121.361 41.0864 121.986 41.6389 123.259 41.6389C124.531 41.6389 125.131 41.1101 125.228 39.8862H126.62C126.477 42.3108 125.419 43.4395 123.259 43.4395C121.121 43.4395 120.041 42.3108 119.896 39.8862H121.289Z" fill="#231F20"/>
</svg>
