<svg width="45" height="45" viewBox="0 0 45 45" fill="none" xmlns="http://www.w3.org/2000/svg">
<path d="M19.7391 25.3847C18.9607 25.3696 18.2618 24.9595 17.8316 24.3248C18.0504 24.3072 18.2634 24.2681 18.4683 24.2099L18.4349 23.2397C17.5783 23.0592 16.8716 22.3884 16.6137 21.5013C16.836 21.5573 17.0671 21.5907 17.3045 21.5985L18.9895 21.6544L17.6074 20.6889C16.9633 20.239 16.5327 19.4647 16.5327 18.5774C16.5327 18.384 16.5531 18.1961 16.5918 18.0158C18.0763 19.586 20.1063 20.6007 22.3685 20.7191L23.0256 20.7535L22.8826 20.1112C22.8412 19.925 22.8193 19.7301 22.8193 19.5293C22.8193 18.1112 23.9132 17 25.2156 17C25.8965 17 26.5176 17.3005 26.9577 17.7908L27.1497 18.0046L27.431 17.9464C27.5541 17.921 27.676 17.8918 27.7965 17.8591C27.7425 17.8997 27.6869 17.9379 27.6298 17.9737L27.9575 18.8934C27.9969 18.8885 28.0362 18.8832 28.0754 18.8775C27.9895 18.9514 27.9014 19.0224 27.8113 19.0905L27.6009 19.2496L27.6133 19.513C27.619 19.6328 27.6213 19.7556 27.6213 19.8812C27.6213 23.6914 24.8551 28 19.8809 28C18.9984 28 18.1508 27.844 17.3606 27.5574C18.3611 27.3524 19.2765 26.9021 20.0463 26.2714L21.0961 25.4111L19.7391 25.3847Z" fill="#231F20" stroke="#231F20"/>
<rect x="0.5" y="0.5" width="44" height="44" rx="22" stroke="#231F20"/>
</svg>
