<svg width="30" height="30" viewBox="0 0 30 30" fill="none" xmlns="http://www.w3.org/2000/svg">
<path d="M12.2391 17.8847C11.4607 17.8696 10.7618 17.4595 10.3316 16.8248C10.5504 16.8072 10.7634 16.7681 10.9683 16.7099L10.9349 15.7397C10.0783 15.5592 9.37165 14.8884 9.11367 14.0013C9.33602 14.0573 9.56708 14.0907 9.80448 14.0985L11.4895 14.1544L10.1074 13.1889C9.46326 12.739 9.03265 11.9647 9.03265 11.0774C9.03265 10.884 9.05312 10.6961 9.0918 10.5158C10.5763 12.086 12.6063 13.1007 14.8685 13.2191L15.5256 13.2535L15.3826 12.6112C15.3412 12.425 15.3193 12.2301 15.3193 12.0293C15.3193 10.6112 16.4132 9.5 17.7156 9.5C18.3965 9.5 19.0176 9.80052 19.4577 10.2908L19.6497 10.5046L19.931 10.4464C20.0541 10.421 20.176 10.3918 20.2965 10.3591C20.2425 10.3997 20.1869 10.4379 20.1298 10.4737L20.4575 11.3934C20.4969 11.3885 20.5362 11.3832 20.5754 11.3775C20.4895 11.4514 20.4014 11.5224 20.3113 11.5905L20.1009 11.7496L20.1133 12.013C20.119 12.1328 20.1213 12.2556 20.1213 12.3812C20.1213 16.1914 17.3551 20.5 12.3809 20.5C11.4984 20.5 10.6508 20.344 9.86056 20.0574C10.8611 19.8524 11.7765 19.4021 12.5463 18.7714L13.5961 17.9111L12.2391 17.8847Z" fill="#231F20" stroke="#231F20"/>
<rect x="0.5" y="0.5" width="29" height="29" rx="14.5" stroke="#231F20"/>
</svg>
