<svg width="45" height="45" viewBox="0 0 46 46" fill="none" xmlns="http://www.w3.org/2000/svg">
<path d="M19.7393 25.3847C18.9609 25.3696 18.262 24.9595 17.8318 24.3248C18.0506 24.3072 18.2637 24.2681 18.4685 24.2099L18.4351 23.2397C17.5785 23.0592 16.8719 22.3884 16.6139 21.5013C16.8363 21.5573 17.0673 21.5907 17.3047 21.5985L18.9897 21.6544L17.6076 20.6889C16.9635 20.239 16.5329 19.4647 16.5329 18.5774C16.5329 18.384 16.5534 18.1961 16.592 18.0158C18.0765 19.586 20.1066 20.6007 22.3687 20.7191L23.0259 20.7535L22.8829 20.1112C22.8414 19.925 22.8195 19.7301 22.8195 19.5293C22.8195 18.1112 23.9135 17 25.2158 17C25.8968 17 26.5178 17.3005 26.958 17.7908L27.1499 18.0046L27.4313 17.9464C27.5544 17.921 27.6762 17.8918 27.7967 17.8591C27.7427 17.8997 27.6871 17.9379 27.63 17.9737L27.9577 18.8934C27.9972 18.8885 28.0365 18.8832 28.0757 18.8775C27.9898 18.9514 27.9017 19.0224 27.8116 19.0905L27.6011 19.2496L27.6136 19.513C27.6193 19.6328 27.6215 19.7556 27.6215 19.8812C27.6215 23.6914 24.8554 28 19.8811 28C18.9986 28 18.151 27.844 17.3608 27.5574C18.3614 27.3524 19.2768 26.9021 20.0465 26.2714L21.0963 25.4111L19.7393 25.3847Z" fill="#231F20" stroke="#231F20"/>
</svg>
